name GIL03_xslow1EmgEnv.mot
datacolumns 51
datarows 11
range 1.27314818 1.28240740
endheader
                time	   rect_fem_l_emgRec	   rect_fem_l_emgEnv	   rect_fem_l_emgAve	   rect_fem_l_emgSDp	   rect_fem_l_emgSDm	   rect_fem_r_emgRec	   rect_fem_r_emgEnv	   rect_fem_r_emgAve	   rect_fem_r_emgSDp	   rect_fem_r_emgSDm	   med_hams_l_emgRec	   med_hams_l_emgEnv	   med_hams_l_emgAve	   med_hams_l_emgSDp	   med_hams_l_emgSDm	   med_hams_r_emgRec	   med_hams_r_emgEnv	   med_hams_r_emgAve	   med_hams_r_emgSDp	   med_hams_r_emgSDm	   lat_hams_l_emgRec	   lat_hams_l_emgEnv	   lat_hams_l_emgAve	   lat_hams_l_emgSDp	   lat_hams_l_emgSDm	   lat_hams_r_emgRec	   lat_hams_r_emgEnv	   lat_hams_r_emgAve	   lat_hams_r_emgSDp	   lat_hams_r_emgSDm	    tib_ant_l_emgRec	    tib_ant_l_emgEnv	    tib_ant_l_emgAve	    tib_ant_l_emgSDp	    tib_ant_l_emgSDm	    tib_ant_r_emgRec	    tib_ant_r_emgEnv	    tib_ant_r_emgAve	    tib_ant_r_emgSDp	    tib_ant_r_emgSDm	    gas_sol_l_emgRec	    gas_sol_l_emgEnv	    gas_sol_l_emgAve	    gas_sol_l_emgSDp	    gas_sol_l_emgSDm	    gas_sol_r_emgRec	    gas_sol_r_emgEnv	    gas_sol_r_emgAve	    gas_sol_r_emgSDp	    gas_sol_r_emgSDm	
          1.27314818	          0.01386007	          0.00929720	         -0.00089126	          0.00265828	         -0.00444080	          0.06001863	          0.04242094	          0.20943674	          0.44037803	         -0.02150454	          0.00459212	          0.06567789	          0.06278625	          0.08785052	          0.03772198	          0.00718725	          0.39032342	          0.25873566	          0.45746338	          0.06000793	          0.02420037	          0.02003545	          0.02686095	          0.03863514	          0.01508676	          0.00757556	          0.04321760	          0.06946923	          0.12179770	          0.01714075	          0.27865173	          0.24985752	          0.21992950	          0.25405574	          0.18580326	          0.01659720	          0.05526487	          0.13311137	          0.20532909	          0.06089365	          0.02126338	          0.03137211	          0.03438407	          0.03153629	          0.03723185	          0.21720492	          0.80323160	          0.31963298	          0.83082315	         -0.19155720	
          1.27407408	          0.01991591	          0.00938040	         -0.00099204	          0.00257966	         -0.00456375	          0.00238948	          0.04246108	          0.20906655	          0.43923149	         -0.02109838	          0.00281682	          0.06517715	          0.06294043	          0.08777880	          0.03810207	          0.00720275	          0.38818545	          0.25808698	          0.45549385	          0.06068011	          0.00732023	          0.01956025	          0.02762480	          0.03939298	          0.01585661	          0.00117254	          0.04246446	          0.06946243	          0.12191344	          0.01701141	          0.11533986	          0.24936680	          0.21819049	          0.25220030	          0.18418068	          0.03446284	          0.05604402	          0.13380265	          0.20658197	          0.06102333	          0.02843892	          0.03112285	          0.03404937	          0.03133142	          0.03676733	          0.16391031	          0.80325943	          0.32036558	          0.83112976	         -0.19039860	
          1.27499998	          0.01015170	          0.00945523	         -0.00108942	          0.00250550	         -0.00468434	          0.04252077	          0.04250325	          0.20869409	          0.43808483	         -0.02069665	          0.00218110	          0.06467526	          0.06309723	          0.08770821	          0.03848625	          0.00379973	          0.38626337	          0.25744361	          0.45354885	          0.06133837	          0.00306512	          0.01909534	          0.02841076	          0.04018040	          0.01664112	          0.00745276	          0.04170975	          0.06945466	          0.12202536	          0.01688395	          0.06300241	          0.24891639	          0.21645772	          0.25035719	          0.18255826	          0.01900798	          0.05685491	          0.13448459	          0.20782585	          0.06114332	          0.02745807	          0.03088919	          0.03371336	          0.03112991	          0.03629681	          0.14492428	          0.80312692	          0.32110733	          0.83141667	         -0.18920201	
          1.27592587	          0.00365166	          0.00952146	         -0.00118328	          0.00243592	         -0.00480248	          0.05935178	          0.04254808	          0.20831926	          0.43693803	         -0.02029951	          0.00625546	          0.06417391	          0.06325669	          0.08763891	          0.03887447	          0.04010688	          0.38455631	          0.25680563	          0.45162854	          0.06198272	          0.00516123	          0.01864238	          0.02921898	          0.04099776	          0.01744020	          0.01129661	          0.04095505	          0.06944591	          0.12213347	          0.01675834	          0.01903087	          0.24850663	          0.21473145	          0.24852652	          0.18093638	          0.01818665	          0.05769426	          0.13515703	          0.20906053	          0.06125354	          0.02408812	          0.03067131	          0.03337618	          0.03093176	          0.03582061	          0.10405244	          0.80282920	          0.32185823	          0.83168405	         -0.18796760	
          1.27685189	          0.00852833	          0.00957892	         -0.00127353	          0.00237101	         -0.00491807	          0.06093923	          0.04259615	          0.20794208	          0.43579106	         -0.01990689	          0.00634371	          0.06367478	          0.06341887	          0.08757103	          0.03926670	          0.04148122	          0.38306268	          0.25617290	          0.44973272	          0.06261307	          0.00637406	          0.01820308	          0.03004970	          0.04184554	          0.01825386	          0.00320177	          0.04020188	          0.06943615	          0.12223771	          0.01663458	          0.01115244	          0.24813759	          0.21301186	          0.24670836	          0.17931537	          0.03452971	          0.05855871	          0.13582002	          0.21028604	          0.06135399	          0.01408404	          0.03046931	          0.03303792	          0.03073688	          0.03533895	          0.03542066	          0.80236201	          0.32261828	          0.83193162	         -0.18669507	
          1.27777779	          0.00711851	          0.00962746	         -0.00136002	          0.00231093	         -0.00503098	          0.03442096	          0.04264809	          0.20756257	          0.43464397	         -0.01951884	          0.00683629	          0.06317948	          0.06358375	          0.08750474	          0.03966275	          0.02256102	          0.38178025	          0.25554562	          0.44786209	          0.06322914	          0.00614369	          0.01777924	          0.03090285	          0.04272388	          0.01908182	          0.00064813	          0.03945172	          0.06942541	          0.12233808	          0.01651274	          0.00428232	          0.24780903	          0.21129969	          0.24490332	          0.17769606	          0.02502813	          0.05944479	          0.13647324	          0.21150190	          0.06144457	          0.00667969	          0.03028326	          0.03269881	          0.03054533	          0.03485230	          0.02438738	          0.80172162	          0.32338744	          0.83215970	         -0.18538481	
          1.27870369	          0.00867805	          0.00966696	         -0.00144267	          0.00225578	         -0.00514112	          0.01233893	          0.04270447	          0.20718059	          0.43349674	         -0.01913556	          0.00790116	          0.06268961	          0.06375143	          0.08744022	          0.04006264	          0.06552659	          0.38070615	          0.25492364	          0.44601637	          0.06383091	          0.00491555	          0.01737275	          0.03177867	          0.04363326	          0.01992408	          0.00154181	          0.03870602	          0.06941367	          0.12243455	          0.01639279	          0.02419658	          0.24752045	          0.20959498	          0.24311130	          0.17607865	          0.00781053	          0.06034894	          0.13711670	          0.21270812	          0.06152528	          0.00278372	          0.03011316	          0.03235896	          0.03035702	          0.03436090	          0.07405522	          0.80090486	          0.32416564	          0.83236825	         -0.18403697	
          1.27962959	          0.01386100	          0.00969731	         -0.00152136	          0.00220568	         -0.00524839	          0.00837379	          0.04276588	          0.20679618	          0.43234938	         -0.01875702	          0.00786541	          0.06220673	          0.06392194	          0.08737759	          0.04046628	          0.07546270	          0.37983689	          0.25430700	          0.44419576	          0.06441824	          0.00371554	          0.01698554	          0.03267730	          0.04457404	          0.02078055	          0.00744831	          0.03796617	          0.06940093	          0.12252710	          0.01627476	          0.02654139	          0.24727102	          0.20789808	          0.24133254	          0.17446362	          0.00536895	          0.06126755	          0.13775031	          0.21390454	          0.06159609	          0.00808529	          0.02995896	          0.03201849	          0.03017191	          0.03386507	          0.11411717	          0.79990913	          0.32495305	          0.83255723	         -0.18265113	
          1.28055549	          0.01629785	          0.00971846	         -0.00159596	          0.00216074	         -0.00535267	          0.00343251	          0.04283286	          0.20640928	          0.43120180	         -0.01838325	          0.00665092	          0.06173230	          0.06409533	          0.08731705	          0.04087360	          0.03290815	          0.37916842	          0.25369570	          0.44240034	          0.06499106	          0.00538468	          0.01661965	          0.03359886	          0.04554660	          0.02165113	          0.01871900	          0.03723350	          0.06938718	          0.12261571	          0.01615864	          0.01356546	          0.24705961	          0.20620932	          0.23956721	          0.17285142	          0.01138459	          0.06219690	          0.13837396	          0.21509101	          0.06165690	          0.00617527	          0.02982056	          0.03167759	          0.02999000	          0.03336517	          0.13497379	          0.79873235	          0.32574967	          0.83272681	         -0.18122748	
          1.28148150	          0.01518855	          0.00973038	         -0.00166639	          0.00212109	         -0.00545386	          0.01612678	          0.04290597	          0.20601980	          0.43005385	         -0.01801424	          0.00448260	          0.06126775	          0.06427167	          0.08725874	          0.04128460	          0.13040144	          0.37869615	          0.25308958	          0.44062985	          0.06554930	          0.00711632	          0.01627714	          0.03454363	          0.04655143	          0.02253583	          0.02443159	          0.03650931	          0.06937239	          0.12270037	          0.01604440	          0.00565968	          0.24688471	          0.20452882	          0.23781531	          0.17124234	          0.02915258	          0.06313327	          0.13898766	          0.21626756	          0.06170776	          0.00664411	          0.02969780	          0.03133632	          0.02981119	          0.03286145	          0.13573333	          0.79737299	          0.32655546	          0.83287689	         -0.17976597	
          1.28240740	          0.01499503	          0.00973304	         -0.00173250	          0.00208684	         -0.00555184	          0.01657144	          0.04298568	          0.20562784	          0.42890587	         -0.01765019	          0.00140682	          0.06081444	          0.06445094	          0.08720282	          0.04169907	          0.26146023	          0.37841502	          0.25248888	          0.43888502	          0.06609274	          0.00401612	          0.01596017	          0.03551148	          0.04758864	          0.02343433	          0.02101197	          0.03579484	          0.06935658	          0.12278105	          0.01593211	          0.01222461	          0.24674451	          0.20285727	          0.23607739	          0.16963715	          0.00520280	          0.06407287	          0.13959117	          0.21743374	          0.06174860	          0.00540779	          0.02959048	          0.03099495	          0.02963552	          0.03235438	          0.12867499	          0.79583004	          0.32737026	          0.83300760	         -0.17826709	
